James Bond willingly falls into an assassination ploy involving a naive Russian
beauty in order to retrieve a Soviet encryption device that was stolen by SPECTRE.

~General Information~

RUNTIME.......: 1h:55m:12s
SIZE..........: 1.5xDVD5
VIDEO CODEC...: x264, 2pass L4.1
FRAMERATE.....: 23.976
BITRATE.......: Variable ~ 6110 Kbps
RESOLUTION....: 1200x720
AUDIO 1.........: English DTS 5.1 @ 1536 Kbps
AUDIO 2.........: Commentary Track1 2.0 @ 224 Kbps
SUBTITLES.....: eng swe
SOURCE........: Blu-ray - A Xorp and BananaFarmer production
IMDB RATING...: 7.5/10 (24,536 votes)
IMDB LINK.....: http://www.imdb.com/title/tt0057076/

~Post Information~

ENCODER.......: rodis11
RELEASE DATE..: 10/20/2008
----------------------------------------------------------------
General
Complete name                    : F:\From.Russia.With.Love.1963.720p BluRay.DTS.x264-CtrlHD\From.Russia.With.Love.1963.720p BluRay.DTS.x264-CtrlHD.mkv
Format                           : Matroska
File size                        : 6.32 GiB
Duration                         : 1h 55mn
Overall bit rate                 : 7 849 Kbps
Encoded date                     : UTC 2002-01-01 14:00:05
Writing application              : mkvmerge v2.2.0 ('Turn It On Again') built on Mar  4 2008 12:58:26
Writing library                  : libebml v0.7.7 + libmatroska v0.8.1

Video
ID                               : 1
Format                           : AVC
Format/Info                      : Advanced Video Codec
Format profile                   : High@L4.1
Format settings, CABAC           : Yes
Format settings, ReFrames        : 6 frames
Muxing mode                      : Container profile=Unknown@4.1
Codec ID                         : V_MPEG4/ISO/AVC
Duration                         : 1h 55mn
Bit rate                         : 5 959 Kbps
Nominal bit rate                 : 6 110 Kbps
Width                            : 1 200 pixels
Height                           : 720 pixels
Display aspect ratio             : 1.667
Frame rate                       : 23.976 fps
Resolution                       : 8 bits
Colorimetry                      : 4:2:0
Scan type                        : Progressive
Bits/(Pixel*Frame)               : 0.288
Stream size                      : 4.79 GiB (76%)
Writing library                  : x264 core 60 r886M 1075536
Encoding settings                : cabac=1 / ref=6 / deblock=1:-3:-3 / analyse=0x3:0x133 / me=umh / subme=7 / brdo=1 / mixed_ref=1 / me_range=32 / chroma_me=1 / trellis=0 / 8x8dct=1 / cqm=2 / deadzone=8,8 / chroma_qp_offset=0 / threads=6 / nr=0 / decimate=1 / mbaff=0 / fgo=0 / bframes=16 / b_pyramid=0 / b_adapt=1 / b_bias=0 / direct=1 / wpredb=1 / bime=1 / keyint=250 / keyint_min=25 / scenecut=40(pre) / rc=2pass / bitrate=6110 / ratetol=1.0 / rceq='blurCplx^(1-qComp)' / qcomp=1.00 / qpmin=10 / qpmax=51 / qpstep=4 / cplxblur=20.0 / qblur=0.5 / ip_ratio=1.40 / pb_ratio=1.30 / aq=2:1.00
Language                         : English

Audio #1
ID                               : 2
Format                           : DTS
Format/Info                      : Digital Theater Systems
Codec ID                         : A_DTS
Duration                         : 1h 55mn
Bit rate mode                    : Constant
Bit rate                         : 1 510 Kbps
Channel(s)                       : 6 channels
Channel positions                : Front: L C R, Surround: L R, LFE
Sampling rate                    : 48.0 KHz
Resolution                       : 24 bits
Stream size                      : 1.21 GiB (19%)

Audio #2
ID                               : 3
Format                           : AC-3
Format/Info                      : Audio Coding 3
Codec ID                         : A_AC3
Duration                         : 1h 55mn
Bit rate mode                    : Constant
Bit rate                         : 224 Kbps
Channel(s)                       : 2 channels
Channel positions                : L R
Sampling rate                    : 48.0 KHz
Stream size                      : 185 MiB (3%)

Text #1
ID                               : 4
Format                           : UTF-8
Codec ID                         : S_TEXT/UTF8
Codec ID/Info                    : UTF-8 Plain Text
Language                         : English

Text #2
ID                               : 5
Format                           : UTF-8
Codec ID                         : S_TEXT/UTF8
Codec ID/Info                    : UTF-8 Plain Text
Language                         : Swedish
 
http://www.imagebam.com/image/6fe7cb118122617
 
http://www.imagebam.com/image/eb93bf118122610
 
http://www.imagebam.com/image/a43f1d118122626